<?xml version="1.0"?>
<svg xmlns="http://www.w3.org/2000/svg" xmlns:xlink="http://www.w3.org/1999/xlink" xmlns:svgjs="http://svgjs.com/svgjs" version="1.1" width="512" height="512" x="0" y="0" viewBox="0 0 368 368" style="enable-background:new 0 0 512 512" xml:space="preserve" class=""><g>
<g xmlns="http://www.w3.org/2000/svg">
	<g>
		<path d="M352,48H16c-1.104,0-2.184,0.112-3.224,0.328C5.496,49.816,0,56.28,0,64v16v216v8c0,7.72,5.496,14.184,12.776,15.672    C13.816,319.888,14.896,320,16,320h336c1.104,0,2.184-0.112,3.224-0.328C362.504,318.184,368,311.72,368,304v-8V80V64    C368,55.176,360.824,48,352,48z M16,95.712l126.888,92.28L16,280.288V95.712z M352,304H16v-3.92l140.488-102.184l22.816,16.584    c2.808,2.04,6.6,2.04,9.408,0l22.816-16.584L352,300.072V304z M352,280.288l-126.888-92.296L352,95.712V280.288z M352,75.928    L184,198.112L16,75.928V64h336V75.928z" fill="#ff667f" data-original="#000000" style="" class=""/>
	</g>
</g>
<g xmlns="http://www.w3.org/2000/svg">
</g>
<g xmlns="http://www.w3.org/2000/svg">
</g>
<g xmlns="http://www.w3.org/2000/svg">
</g>
<g xmlns="http://www.w3.org/2000/svg">
</g>
<g xmlns="http://www.w3.org/2000/svg">
</g>
<g xmlns="http://www.w3.org/2000/svg">
</g>
<g xmlns="http://www.w3.org/2000/svg">
</g>
<g xmlns="http://www.w3.org/2000/svg">
</g>
<g xmlns="http://www.w3.org/2000/svg">
</g>
<g xmlns="http://www.w3.org/2000/svg">
</g>
<g xmlns="http://www.w3.org/2000/svg">
</g>
<g xmlns="http://www.w3.org/2000/svg">
</g>
<g xmlns="http://www.w3.org/2000/svg">
</g>
<g xmlns="http://www.w3.org/2000/svg">
</g>
<g xmlns="http://www.w3.org/2000/svg">
</g>
</g></svg>
