<?xml version="1.0" standalone="no"?>
<!DOCTYPE svg PUBLIC "-//W3C//DTD SVG 20010904//EN"
 "http://www.w3.org/TR/2001/REC-SVG-20010904/DTD/svg10.dtd">
<svg version="1.0" xmlns="http://www.w3.org/2000/svg"
 width="512.000000pt" height="512.000000pt" viewBox="0 0 512.000000 512.000000"
 preserveAspectRatio="xMidYMid meet">
<metadata>
Created by potrace 1.16, written by Peter Selinger 2001-2019
</metadata>
<g transform="translate(0.000000,512.000000) scale(0.100000,-0.100000)"
fill="#000000" stroke="none">
<path d="M303 5052 c-86 -74 -272 -269 -286 -299 -33 -73 41 -14 241 191 78
80 142 151 142 156 0 23 -34 6 -97 -48z"/>
<path d="M503 5051 c-104 -90 -480 -475 -488 -500 -12 -37 2 -35 52 7 72 60
533 529 533 541 0 24 -33 8 -97 -48z"/>
<path d="M703 5051 c-112 -97 -680 -674 -687 -699 -23 -71 24 -29 442 391 188
189 342 349 342 356 0 24 -32 8 -97 -48z"/>
<path d="M903 5051 c-116 -100 -880 -875 -888 -899 -22 -72 19 -35 543 491
243 244 442 449 442 455 0 25 -32 10 -97 -47z"/>
<path d="M1103 5051 c-118 -102 -1080 -1075 -1088 -1099 -11 -38 2 -37 52 6
79 66 1133 1127 1133 1140 0 25 -32 10 -97 -47z"/>
<path d="M1303 5051 c-119 -104 -1280 -1275 -1288 -1299 -11 -38 2 -37 52 6
80 67 1333 1327 1333 1340 0 25 -32 10 -97 -47z"/>
<path d="M1503 5051 c-121 -105 -1480 -1475 -1488 -1499 -11 -38 2 -37 52 6
81 68 1533 1527 1533 1540 0 25 -32 10 -97 -47z"/>
<path d="M1703 5051 c-121 -105 -1680 -1675 -1688 -1699 -11 -38 2 -37 52 6
81 68 1733 1727 1733 1740 0 25 -32 10 -97 -47z"/>
<path d="M1903 5051 c-122 -106 -1881 -1875 -1888 -1899 -11 -38 2 -37 52 6
82 69 1933 1927 1933 1940 0 25 -32 10 -97 -47z"/>
<path d="M2133 5078 c-60 -50 -1999 -1986 -2064 -2061 -56 -64 -72 -97 -48
-97 5 0 96 84 202 188 105 103 177 169 161 147 -44 -58 -92 -139 -120 -204
-17 -38 -51 -83 -108 -141 -106 -109 -146 -157 -146 -175 0 -26 16 -16 105 68
49 45 86 75 83 66 -4 -10 -12 -46 -19 -80 -10 -54 -19 -71 -58 -114 -77 -82
-111 -125 -111 -140 0 -25 12 -18 83 46 l67 61 0 -65 c0 -48 -4 -68 -17 -78
-34 -29 -133 -150 -133 -164 0 -25 12 -18 82 45 l66 60 10 -52 9 -53 -52 -55
c-81 -87 -115 -130 -115 -145 0 -26 15 -17 97 59 l80 75 15 -49 16 -48 -45
-44 c-113 -108 -186 -208 -154 -208 5 0 56 45 114 100 l104 100 18 -46 17 -46
-99 -102 c-55 -55 -114 -118 -131 -139 -32 -37 -41 -67 -22 -67 5 0 70 59 144
130 l134 131 21 -34 c12 -19 21 -38 21 -43 0 -5 -48 -57 -106 -114 -179 -178
-253 -270 -214 -270 6 0 89 76 184 170 l173 170 26 -37 27 -38 -178 -180 c-98
-99 -193 -197 -210 -218 -32 -38 -41 -67 -21 -67 6 0 108 97 228 215 l217 215
32 -33 32 -33 -201 -199 c-278 -277 -353 -365 -308 -365 6 0 131 119 278 264
l266 265 37 -28 37 -27 -256 -255 c-335 -334 -409 -419 -362 -419 6 0 157 144
334 321 l323 321 42 -23 41 -23 -344 -346 c-189 -190 -358 -362 -375 -383 -33
-38 -41 -67 -21 -67 7 0 186 173 399 386 l387 385 39 -18 c21 -9 41 -19 44
-21 2 -1 -181 -188 -406 -415 -226 -227 -425 -429 -442 -450 -33 -38 -41 -67
-20 -67 6 0 217 205 468 455 l457 456 46 -13 c26 -7 47 -15 47 -18 0 -3 -205
-210 -456 -460 -251 -250 -482 -485 -515 -523 -57 -65 -72 -97 -47 -97 6 0
253 241 547 535 l536 534 58 -6 59 -6 -574 -576 c-316 -317 -589 -593 -606
-614 -33 -39 -41 -67 -20 -67 6 0 293 281 638 625 l626 625 64 0 64 0 -672
-673 c-370 -370 -672 -679 -672 -685 0 -21 28 -13 67 20 21 17 337 330 703
695 521 519 671 663 690 663 14 0 49 7 79 15 l55 14 -697 -698 c-383 -383
-697 -703 -697 -709 0 -25 32 -10 97 47 38 33 367 359 733 726 642 643 668
668 745 707 99 51 174 101 251 169 32 29 -320 -327 -783 -792 -464 -465 -843
-850 -843 -857 0 -21 28 -13 67 20 21 17 485 477 1031 1022 l992 991 0 -65 0
-65 -945 -945 c-520 -520 -945 -951 -945 -958 0 -21 28 -13 67 20 21 17 440
432 931 922 l892 891 0 -65 0 -65 -845 -845 c-465 -465 -845 -851 -845 -858 0
-21 28 -13 67 20 21 17 395 387 831 822 l792 791 0 -65 0 -64 -745 -746 c-410
-410 -745 -751 -745 -758 0 -21 28 -13 67 20 21 17 350 342 731 722 l692 691
0 -65 0 -64 -645 -646 c-355 -356 -645 -652 -645 -658 0 -21 28 -13 67 20 21
17 305 297 631 622 538 537 592 588 592 560 0 -16 6 -39 14 -50 14 -18 -20
-54 -545 -580 -307 -308 -559 -566 -559 -572 0 -25 32 -10 97 47 38 33 295
287 573 565 l505 506 65 0 64 0 -552 -553 c-304 -305 -552 -559 -552 -565 0
-25 32 -10 97 47 38 33 295 287 573 565 l505 506 65 0 64 0 -552 -553 c-304
-305 -552 -559 -552 -565 0 -25 32 -10 97 47 38 33 295 287 573 565 l505 506
65 0 64 0 -552 -553 c-304 -305 -552 -559 -552 -565 0 -21 28 -13 67 20 21 17
279 271 573 564 471 468 539 533 572 538 42 8 68 37 68 76 0 19 62 87 282 307
l283 283 49 0 c48 0 50 1 147 97 54 53 102 93 106 89 4 -3 -433 -447 -970
-984 -537 -538 -977 -983 -977 -990 0 -21 28 -13 67 20 21 17 462 455 980 972
l943 941 32 -33 33 -32 -928 -928 c-510 -510 -927 -933 -927 -940 0 -25 32
-10 97 47 38 33 454 446 926 918 l858 859 44 -20 43 -21 -884 -885 c-486 -487
-884 -891 -884 -898 0 -25 32 -10 97 47 38 33 446 438 908 900 l840 841 65 0
65 0 -888 -888 c-488 -488 -887 -893 -887 -900 0 -25 32 -10 97 47 38 33 446
438 908 900 l840 841 65 0 65 0 -888 -888 c-488 -488 -887 -893 -887 -900 0
-25 32 -10 97 47 75 65 1871 1864 1921 1924 30 36 41 67 24 67 -4 0 -40 -30
-80 -66 l-72 -66 0 65 c0 53 4 67 21 83 44 38 139 155 139 169 0 25 -13 18
-88 -51 l-72 -66 0 65 c0 53 4 67 21 83 44 38 139 155 139 169 0 25 -13 18
-88 -51 -69 -63 -72 -65 -72 -38 0 15 -8 36 -17 46 -16 18 -14 22 48 86 36 37
80 84 97 105 31 37 41 67 23 67 -5 0 -57 -46 -116 -102 l-106 -101 -32 31 -32
32 116 118 c63 64 130 134 147 155 32 37 41 67 22 67 -6 0 -80 -68 -165 -151
-91 -89 -159 -148 -165 -144 -7 5 25 44 84 105 93 94 96 99 96 142 0 33 6 50
21 64 44 38 139 155 139 169 0 25 -13 18 -88 -51 l-72 -66 0 65 c0 53 4 67 21
83 44 38 139 155 139 169 0 25 -13 18 -88 -51 l-72 -66 0 65 c0 53 4 67 21 83
44 38 139 155 139 169 0 26 -15 17 -96 -59 -73 -67 -81 -73 -99 -60 -10 8 -33
14 -49 14 -29 0 -27 4 75 108 58 59 120 124 137 145 32 37 41 67 22 67 -6 0
-84 -72 -174 -160 l-163 -160 -64 0 -64 0 206 208 c113 114 220 224 237 245
32 38 41 67 21 67 -6 0 -129 -117 -273 -260 l-262 -260 -65 0 -64 0 306 308
c168 169 320 324 337 345 33 38 41 67 20 67 -6 0 -214 -203 -463 -450 l-451
-450 -32 33 -32 33 436 434 c240 239 462 465 495 503 57 65 72 97 47 97 -6 0
-237 -225 -513 -500 l-501 -500 -32 33 -32 33 486 484 c267 267 512 515 545
553 57 65 72 97 47 97 -6 0 -264 -252 -573 -560 l-561 -560 -64 0 -65 0 606
608 c333 334 620 624 637 645 33 39 41 67 20 67 -6 0 -309 -297 -673 -660
l-661 -660 -64 0 -65 0 706 708 c388 389 720 724 737 745 33 39 41 67 20 67
-7 0 -354 -342 -773 -760 -628 -628 -765 -760 -787 -760 -60 0 -98 -38 -98
-98 0 -20 -14 -42 -50 -77 l-50 -49 0 64 0 65 826 825 c454 454 852 855 885
893 57 65 72 97 47 97 -7 0 -405 -393 -885 -872 l-873 -873 0 65 0 64 825 826
c454 454 825 831 825 838 0 21 -28 13 -67 -20 -21 -17 -386 -378 -810 -802
l-773 -771 0 65 0 64 725 726 c399 399 725 731 725 738 0 21 -28 13 -67 -20
-21 -17 -341 -333 -710 -702 l-673 -671 0 65 0 64 625 626 c344 345 625 632
625 638 0 25 -32 10 -97 -47 -38 -33 -311 -302 -608 -600 l-539 -540 -13 30
c-7 16 -19 32 -28 36 -12 4 125 147 534 558 303 303 551 557 551 563 0 25 -32
10 -97 -47 -38 -33 -293 -285 -568 -560 l-500 -501 -65 0 -64 0 547 548 c301
302 547 554 547 560 0 25 -32 10 -97 -47 -38 -33 -293 -285 -568 -560 l-500
-501 -65 0 -64 0 547 548 c301 302 547 554 547 560 0 25 -32 10 -97 -47 -38
-33 -293 -285 -568 -560 l-500 -501 -65 0 -64 0 547 548 c301 302 547 554 547
560 0 21 -28 13 -67 -20 -21 -17 -276 -269 -568 -559 -291 -291 -543 -533
-558 -538 -17 -7 -34 -24 -42 -43 -8 -18 -117 -136 -243 -262 l-230 -229 -36
29 -36 29 790 790 c435 435 790 796 790 803 0 25 -32 10 -97 -47 -38 -33 -394
-386 -793 -785 -399 -399 -728 -726 -733 -726 -4 0 -23 10 -42 23 l-34 22 749
751 c413 412 750 755 750 762 0 21 -28 13 -67 -20 -21 -17 -362 -355 -759
-751 l-721 -719 -43 22 -43 22 717 717 c394 394 716 723 716 729 0 25 -32 10
-97 -47 -38 -33 -365 -356 -728 -720 -713 -714 -659 -667 -734 -639 -23 8 19
53 667 702 381 380 692 698 692 704 0 25 -32 10 -97 -47 -38 -33 -356 -348
-708 -700 -404 -405 -645 -639 -655 -637 -8 2 -33 7 -54 11 l-39 6 677 678
c372 372 676 683 676 689 0 25 -32 10 -97 -47 -38 -33 -351 -343 -698 -690
l-630 -631 -65 0 -64 0 677 678 c372 373 677 684 677 690 0 21 -28 13 -67 -20
-21 -17 -336 -329 -700 -692 l-662 -660 -81 -16 -80 -16 695 696 c382 383 695
702 695 708 0 25 -32 10 -97 -47 -38 -33 -367 -359 -733 -726 -657 -658 -666
-666 -745 -704 -44 -21 -111 -59 -150 -85 -56 -38 93 116 728 751 438 440 797
804 797 811 0 21 -28 13 -67 -20z m245 -1545 l-182 -183 -33 32 -33 32 212
213 213 213 3 -62 3 -62 -183 -183z m517 117 l-160 -160 -3 62 -3 62 98 98 98
98 65 0 65 0 -160 -160z m285 122 c0 -35 -11 -49 -225 -262 l-225 -225 0 65 0
65 197 197 c162 162 203 198 225 198 26 0 28 -3 28 -38z m-224 -461 l-226
-226 0 65 0 65 223 223 222 222 3 -62 3 -62 -225 -225z m-534 66 l-139 -139
-28 37 -28 36 164 165 164 164 3 -62 3 -62 -139 -139z m-1552 -352 l-535 -535
-3 62 -3 62 473 473 473 473 65 0 65 0 -535 -535z m-100 100 c-233 -233 -426
-423 -427 -421 -2 2 4 37 13 78 l17 76 331 330 331 330 65 15 c36 9 72 16 80
16 8 1 -176 -190 -410 -424z m784 408 c15 -4 -106 -130 -585 -609 -332 -332
-607 -604 -611 -604 -3 0 -9 23 -13 51 l-7 52 563 564 c564 564 564 564 599
558 19 -3 43 -9 54 -12z m127 -39 l41 -17 -264 -264 c-184 -185 -278 -272
-312 -290 -68 -35 -147 -112 -179 -175 -20 -40 -94 -121 -292 -318 -145 -145
-267 -262 -270 -259 -2 3 -11 23 -19 45 l-14 39 626 628 c345 345 630 627 634
627 4 0 26 -7 49 -16z m-781 -37 c0 -1 -106 -108 -236 -237 -224 -222 -235
-232 -204 -175 84 155 228 301 381 385 55 30 59 32 59 27z m2056 -346 l-226
-226 0 65 0 65 223 223 222 222 3 -62 3 -62 -225 -225z m-1139 318 l35 -22
-223 -223 -224 -224 -65 0 -65 0 245 245 c135 135 249 245 254 245 5 0 24 -10
43 -21z m646 -211 c-54 -54 -100 -98 -103 -98 -3 0 -16 17 -28 38 l-21 37 122
123 122 122 3 -62 3 -62 -98 -98z m-705 -105 l-211 -211 -44 21 -44 21 217
217 218 218 37 -27 38 -27 -211 -212z m102 -98 l-210 -210 -31 34 -31 34 208
208 208 209 33 -32 34 -32 -211 -211z m1096 -104 l-226 -226 0 65 0 65 223
223 222 222 3 -62 3 -62 -225 -225z m-465 135 l-70 -70 -20 45 -19 44 87 88
86 88 3 -63 3 -62 -70 -70z m-363 104 c12 -16 22 -33 22 -37 0 -10 -428 -439
-432 -433 -2 3 -12 23 -21 44 l-18 39 208 209 c114 114 210 208 214 208 3 0
15 -13 27 -30z m1587 -80 l-90 -91 -3 62 c-3 56 0 65 24 90 25 26 34 29 93 29
l66 0 -90 -90z m238 72 c15 -17 7 -27 -143 -177 -137 -137 -161 -157 -174
-146 -9 8 -16 29 -16 50 0 33 11 47 127 163 109 109 132 128 159 128 17 0 38
-8 47 -18z m647 15 c0 -1 -220 -223 -490 -492 l-490 -490 0 61 0 61 426 431
426 432 64 0 c35 0 64 -1 64 -3z m190 -5 c0 -4 -263 -270 -585 -592 l-585
-585 0 65 0 65 527 527 528 528 57 0 c32 0 58 -3 58 -8z m-880 -287 l-160
-160 -32 33 -33 32 160 160 159 160 33 -32 34 -32 -161 -161z m393 -407 l-488
-488 -65 0 -65 0 550 550 550 550 3 -62 3 -62 -488 -488z m-2094 564 l20 -39
-250 -249 -249 -249 0 65 0 65 222 222 c123 123 226 223 230 223 4 0 16 -17
27 -38z m747 -311 l-226 -226 0 65 0 65 223 223 222 222 3 -62 3 -62 -225
-225z m1213 221 c3 -1 -68 -76 -158 -166 l-164 -164 -30 35 -30 34 159 160
158 159 31 -28 c16 -15 32 -28 34 -30z m-1899 -56 l12 -39 -623 -623 -624
-624 -49 16 -48 17 273 274 c151 151 291 283 312 294 55 29 114 86 144 138 29
52 574 605 584 593 4 -4 12 -24 19 -46z m2415 -148 c-109 -114 -130 -146 -119
-181 5 -16 -25 -51 -156 -182 -155 -156 -164 -162 -202 -162 -38 0 -47 -7
-157 -117 -86 -85 -123 -116 -141 -116 -20 0 60 85 425 450 285 285 451 445
453 435 2 -9 -42 -63 -103 -127z m-1729 -217 l-226 -226 0 65 0 65 223 223
222 222 3 -62 3 -62 -225 -225z m-1548 264 c4 -3 -62 -74 -146 -157 -83 -84
-154 -150 -157 -147 -3 3 -8 27 -11 53 l-7 48 109 110 109 110 49 -6 c27 -3
51 -8 54 -11z m901 -53 l8 -50 -561 -561 -561 -560 -53 11 -54 11 603 603
c332 332 605 602 606 600 2 -2 7 -26 12 -54z m1211 -42 c0 -3 -38 -43 -85 -90
l-85 -85 0 65 0 64 57 59 58 58 27 -33 c15 -18 28 -35 28 -38z m-2039 48 c51
-43 54 -38 -117 -209 -87 -87 -163 -159 -168 -159 -14 0 -56 41 -56 54 0 11
310 326 320 326 4 0 13 -6 21 -12z m1475 -417 l-226 -226 0 65 0 65 223 223
222 222 3 -62 3 -62 -225 -225z m639 299 l29 -31 -137 -137 -137 -137 0 65 0
65 102 102 c57 57 105 103 108 103 4 0 19 -14 35 -30z m-2035 -50 c0 -44 -3
-48 -100 -145 -99 -98 -101 -100 -145 -98 -24 1 -50 5 -56 8 -7 5 45 64 137
156 100 100 151 144 156 136 4 -7 8 -32 8 -57z m-862 -307 l-224 -224 -23 42
-24 41 244 244 244 244 3 -62 3 -62 -223 -223z m1160 -240 c-434 -434 -465
-463 -504 -469 -23 -3 -52 -3 -64 1 -20 6 36 66 501 531 l524 524 3 -62 3 -62
-463 -463z m2652 252 l-160 -160 -32 33 -33 32 160 160 159 160 33 -32 34 -32
-161 -161z m-1554 -154 l-226 -226 0 65 0 65 223 223 222 222 3 -62 3 -62
-225 -225z m-2188 12 l-211 -211 -28 36 -27 37 216 217 217 218 22 -43 22 -42
-211 -212z m1526 186 l-17 -74 -319 -320 -319 -321 -63 -17 c-36 -9 -73 -17
-83 -17 -11 0 139 157 397 415 228 228 416 413 418 411 2 -2 -5 -37 -14 -77z
m2444 48 l32 -33 -164 -163 -163 -163 -28 37 -28 36 159 160 c87 87 159 159
159 159 1 0 15 -15 33 -33z m-3875 -339 l-207 -208 -33 32 -33 32 207 208 207
208 33 -32 33 -32 -207 -208z m3840 40 l-88 -88 -65 0 -65 0 150 150 150 150
3 -62 3 -62 -88 -88z m-1747 -147 l-226 -226 0 65 0 65 223 223 222 222 3 -62
3 -62 -225 -225z m-597 5 c-112 -111 -182 -178 -156 -149 56 63 150 204 178
270 13 29 51 78 98 126 l76 78 3 -63 3 -62 -202 -200z m-1375 23 l-218 -218
-37 27 -38 27 211 212 211 211 44 -21 44 -21 -217 -217z m156 -44 c-260 -260
-251 -254 -308 -217 -23 15 -22 17 200 239 l223 223 65 0 65 0 -245 -245z
m1044 148 c-85 -146 -224 -283 -379 -373 -27 -15 33 51 180 199 121 121 221
221 223 221 2 0 -9 -21 -24 -47z m772 -332 l-226 -226 0 65 0 65 223 223 222
222 3 -62 3 -62 -225 -225z m7 -193 c-120 -120 -221 -218 -225 -218 -5 0 -8
26 -8 57 l0 58 223 223 222 222 3 -62 3 -62 -218 -218z m537 137 l-145 -145
-3 62 -3 62 83 83 83 83 65 0 65 0 -145 -145z m100 -100 l-245 -245 -3 62 -3
62 183 183 183 183 65 0 65 0 -245 -245z m-537 -137 l-118 -118 -65 0 -65 0
180 180 180 180 3 -62 3 -62 -118 -118z"/>
<path d="M4222 978 c-480 -480 -892 -895 -914 -921 -43 -50 -44 -63 -6 -52 24
8 1653 1626 1759 1748 57 65 72 97 47 97 -7 0 -405 -393 -886 -872z"/>
<path d="M4322 878 c-754 -754 -860 -863 -849 -874 3 -3 16 -3 29 1 24 8 1454
1427 1559 1548 57 65 72 97 47 97 -7 0 -360 -348 -786 -772z"/>
<path d="M4422 778 c-658 -658 -760 -763 -749 -774 3 -3 16 -3 29 1 24 8 1255
1228 1359 1348 57 65 72 97 47 97 -6 0 -315 -303 -686 -672z"/>
<path d="M4522 678 c-664 -663 -694 -695 -620 -673 24 8 1056 1030 1159 1148
57 65 72 97 47 97 -6 0 -270 -258 -586 -572z"/>
<path d="M4623 578 c-558 -557 -594 -595 -521 -573 24 8 858 832 959 948 57
65 72 97 47 97 -6 0 -225 -213 -485 -472z"/>
<path d="M4723 478 c-452 -450 -492 -495 -421 -472 25 7 661 634 759 747 56
65 72 97 48 97 -7 0 -180 -168 -386 -372z"/>
<path d="M4823 378 c-345 -342 -390 -394 -322 -373 25 8 468 441 560 548 56
64 72 97 48 97 -6 0 -135 -123 -286 -272z"/>
<path d="M4924 278 c-185 -182 -261 -265 -250 -275 14 -14 62 23 192 149 203
197 286 298 244 298 -6 0 -90 -78 -186 -172z"/>
</g>
</svg>
